<svg width="120" height="120" viewBox="0 0 120 120" fill="none" xmlns="http://www.w3.org/2000/svg">
  <defs>
    <linearGradient id="bg" x1="0%" y1="0%" x2="100%" y2="100%">
      <stop offset="0%" stop-color="#00B4D8"/>
      <stop offset="50%" stop-color="#0077B6"/>
      <stop offset="100%" stop-color="#023E8A"/>
    </linearGradient>
  </defs>
  <circle cx="60" cy="60" r="56" fill="url(#bg)"/>
  <path d="M25 42 Q50 38, 72 42 Q82 44, 85 38 Q88 32, 80 30" stroke="rgba(255,255,255,0.85)" stroke-width="4" stroke-linecap="round" fill="none"/>
  <path d="M20 58 Q48 52, 78 58 Q90 60, 94 52 Q98 44, 88 42" stroke="rgba(255,255,255,0.9)" stroke-width="4.5" stroke-linecap="round" fill="none"/>
  <path d="M28 74 Q55 68, 82 74 Q92 76, 95 68" stroke="rgba(255,255,255,0.8)" stroke-width="3.5" stroke-linecap="round" fill="none"/>
  <g transform="translate(38, 68) scale(0.7)">
    <path d="M30 10 L5 30 L55 30 Z" fill="white" opacity="0.95"/>
    <rect x="10" y="30" width="40" height="25" rx="2" fill="white" opacity="0.9"/>
    <rect x="23" y="38" width="14" height="17" rx="1" fill="#0077B6" opacity="0.8"/>
  </g>
</svg>
